<svg width="138" height="29" viewBox="0 0 138 29" fill="none" xmlns="http://www.w3.org/2000/svg">
<g clip-path="url(#clip0_3639_21)">
<path d="M125.05 6.59999C119.55 6.99999 115.15 11.5 114.75 17C114.35 23.5 119.45 28.9 125.85 28.9C128.15 28.9 131.25 27.7 132.65 25.3V28.6H136.95V18C137.15 11 131.55 6.09999 125.05 6.59999ZM132.35 18C132.15 21.7 128.95 24.5 125.15 24C122.25 23.6 119.95 21.3 119.55 18.4C119.15 14.5 122.15 11.2 125.95 11.2C129.35 11.2 132.15 13.9 132.35 17.3V18Z" fill="white"/>
<path d="M101.45 6.59999C95.55 6.79999 90.55 11.3 90.55 17.9C90.55 23.9 95.45 29 101.75 29C106.15 29 110.45 26.4 112.15 22.1L107.85 20.8C107.05 22.6 105.15 24.1 103.05 24.5C100.05 25.1 97.25 23.2 96.15 21.2L112.85 16.6C112.35 12.2 108.55 6.39999 101.45 6.59999ZM95.25 17.2C95.25 14.9 96.65 12.2 99.65 11.1C103.05 9.79999 106.05 11.5 107.35 13.9L95.25 17.2Z" fill="white"/>
<path d="M64.75 11.1V6.49999C60.55 6.49999 59.15 8.59999 58.45 9.69999V7.19999H53.65V17.4V28.5H58.55C58.55 21.9 58.55 22 58.55 18C58.55 13.2 61.35 11.3 64.75 11.1Z" fill="white"/>
<path d="M20.65 20L6.05002 2.79999H1.05002V28.5H6.25002V11.3L21.05 28.6H25.55V2.79999H20.65V20Z" fill="white"/>
<path d="M87.65 0.499992H83.05V8.89999C81.95 7.49999 78.55 6.29999 75.65 6.59999C70.15 6.99999 65.75 11.5 65.35 17C64.95 23.5 70.05 28.9 76.45 28.9C78.85 28.9 82.15 27.8 83.25 25.7V28.5H87.55V17.9C87.55 17.8 87.55 17.8 87.55 17.7C87.55 17.6 87.55 17.6 87.55 17.5L87.65 0.499992ZM82.85 18C82.65 21.7 79.45 24.5 75.65 24C72.75 23.6 70.45 21.3 70.05 18.4C69.65 14.5 72.65 11.2 76.45 11.2C79.85 11.2 82.65 13.9 82.85 17.3V18Z" fill="white"/>
<path d="M39.65 6.49999C33.45 6.49999 28.45 11.5 28.45 17.7C28.45 23.9 33.45 28.9 39.65 28.9C45.85 28.9 50.85 23.9 50.85 17.7C50.75 11.5 45.75 6.49999 39.65 6.49999ZM39.65 24.1C36.15 24.1 33.25 21.2 33.25 17.7C33.25 14.2 36.15 11.3 39.65 11.3C43.15 11.3 46.05 14.2 46.05 17.7C46.05 21.3 43.15 24.1 39.65 24.1Z" fill="white"/>
</g>
<defs>
<clipPath id="clip0_3639_21">
<rect width="136.1" height="28.6" fill="white" transform="translate(0.950012 0.399994)"/>
</clipPath>
</defs>
</svg>
