<svg width="140" height="21" viewBox="0 0 140 21" fill="none" xmlns="http://www.w3.org/2000/svg">
<path d="M0 16.1657L0.0235894 0.205816C0.0235894 0.0196281 0.208935 0.00656235 0.198825 0.00656235H8.34056C8.51916 0.0032959 8.54275 0.186217 8.54612 0.182951L14.0559 10.162C14.1166 10.2469 14.2413 10.2926 14.3458 10.2534C14.4536 10.2109 14.4974 10.0476 14.4974 10.0476L14.2682 0.215615C14.2682 0.09149 14.2918 0.026161 14.4165 0.00656235H19.9769C20.1959 0.00656235 20.2162 0.179684 20.2094 0.169885V16.1069C20.2094 16.1069 20.1858 16.3225 19.9567 16.3192L12.1182 16.3257C11.9396 16.3257 11.7914 16.3257 11.6262 16.0546L6.16696 6.04296C5.96813 5.78818 5.68506 5.97763 5.68506 6.26508L5.99846 16.1036C6.01868 16.2473 5.89736 16.3323 5.77941 16.3192L0.195455 16.3257C0.0909879 16.3257 0 16.2473 0.00336992 16.1624L0 16.1657Z" fill="white"/>
<path d="M32.2097 10.6683L35.0404 4.23335C35.1078 4.13535 35.2527 4.07002 35.3606 4.05696H41.359C41.359 4.05696 41.5612 4.06023 41.4871 4.24315L33.3319 18.916C32.4658 20.4578 30.7135 20.9739 29.4565 21H24.2803C24.2803 21 24.0747 21.0033 24.0747 20.8073V17.2926C24.0983 17.1587 24.1826 17.0836 24.3174 17.0836H27.8086C28.8128 17.0836 29.0386 16.4499 28.6477 15.7214L22.1168 4.34767C21.9416 3.9949 22.3695 4.06349 22.6257 4.06349H28.2905C28.4084 4.08962 28.4556 4.20395 28.4961 4.26928L31.8828 10.6748C32.0513 11.0178 32.2131 10.6683 32.2131 10.6683H32.2097Z" fill="white"/>
<path d="M54.0367 4.06023H60.4968C60.945 4.06023 60.6114 4.3836 60.6114 4.3836L56.3215 8.79331C56.2305 8.87824 56.2305 8.9403 56.308 9.01216L62.2222 16.0677C62.4278 16.2473 62.2795 16.3323 62.2054 16.329L54.7208 16.3192C54.4781 16.3192 54.4175 16.1298 54.3636 16.0612L50.7948 10.9949C50.6128 10.7499 50.4005 10.616 49.9119 10.6617C49.7299 10.6813 49.7232 10.9361 49.7232 10.9361V16.1004C49.7232 16.1004 49.7198 16.329 49.494 16.329L43.3372 16.3225C43.2058 16.3225 43.135 16.2049 43.135 16.1036V0.163352C43.135 0.0522926 43.1485 0.0032959 43.3237 0.0032959H49.5547C49.5547 0.0032959 49.74 0.0032959 49.7232 0.169885V8.38827C49.7232 8.58426 49.8512 8.74431 50.0737 8.55813L53.5817 4.24968C53.7604 4.07002 54.0367 4.06349 54.0367 4.06349V4.06023Z" fill="white"/>
<path d="M70.7953 16.1461C70.7953 16.1461 70.7751 16.3225 70.6167 16.3225H64.4733C64.3419 16.3225 64.288 16.1461 64.288 16.1461V4.25295C64.288 4.25295 64.3352 4.06349 64.47 4.06676H74.6067C74.5865 4.07656 74.7381 4.11575 74.7347 4.22681V6.3696C74.7347 6.3696 74.7415 6.52313 74.5966 6.59826L70.9672 8.32294C70.8425 8.3654 70.8122 8.4438 70.7818 8.46993V16.1428" fill="white"/>
<path d="M82.9371 12.014C82.9371 12.6641 83.0888 13.105 83.4392 13.2945C84.2986 13.7812 86.3374 13.7289 87.1967 13.4578C87.719 13.2781 87.8572 12.9482 87.8572 12.4485C87.8572 12.3897 87.9415 12.2949 88.083 12.2949H94.2162C94.3814 12.2949 94.4151 12.4648 94.4083 12.5824C94.2533 13.8694 94.2837 16.6001 84.9759 16.6001C77.5351 16.6001 76.3018 14.1601 76.3018 12.3374V7.84277C76.322 6.04949 77.5082 3.54086 84.9759 3.54086C90.479 3.54086 92.8043 4.41954 93.8624 5.77184C94.4589 6.53619 94.5128 7.32341 94.5128 7.32341V10.8446C94.5128 10.9459 94.4387 11.0831 94.3005 11.0831H83.173C83.0247 11.0831 82.9439 11.1419 82.9439 11.2823V12.014H82.9371ZM82.9371 8.45033C82.9439 8.58099 83.0315 8.65612 83.1023 8.65612H87.9886C88.1369 8.65285 88.1841 8.54179 88.1841 8.43727V7.54879C88.147 7.21888 88.1167 6.9249 87.773 6.67665C87.0518 6.23568 83.9043 6.20628 83.2472 6.77464C83.045 6.9445 82.9675 7.25808 82.9405 7.56186V8.45033H82.9371Z" fill="white"/>
<path d="M129.671 12.811C129.671 15.1433 131.208 16.3192 133.587 16.3192H139.788C139.936 16.3192 140.003 16.2147 140 16.0808V13.1704C140.007 13.0332 139.97 12.9776 139.838 12.9744H137.22C136.64 12.9744 136.158 12.6445 136.158 11.9846V8.34254C136.158 8.16942 136.3 8.06162 136.3 8.06162L139.693 6.43167C139.949 6.31407 139.98 6.23568 139.987 6.18668V4.23661C139.97 4.18108 139.949 4.05696 139.781 4.05696H136.307C136.172 4.03736 136.138 3.93283 136.145 3.82504V1.25435C136.145 1.25435 136.121 1.09102 135.946 1.09102H129.873C129.873 1.09102 129.695 1.13349 129.675 1.26088V12.811H129.671Z" fill="white"/>
<path d="M114.793 0.176418V16.1265C114.793 16.2702 114.614 16.3192 114.614 16.3192H108.865C107.831 16.3192 104.703 16.868 101.751 16.2049C100.174 15.8325 98.8701 15.4928 97.8895 14.0425C97.6569 13.6113 97.3739 12.8143 97.3739 11.658V8.62672C97.3739 7.67618 97.5356 6.03969 98.6342 5.20675C101.323 3.16848 105.617 3.4396 108.441 3.74991V0.222148C108.441 0.0490262 108.673 0.00656235 108.673 0.00656235H114.655C114.776 -0.003237 114.79 0.176418 114.79 0.176418H114.793ZM108.485 8.16615C108.485 7.22868 107.534 6.76811 106.631 6.76811H105.944C105.03 6.76811 104.087 7.23195 104.087 8.16615C104.087 8.16615 104.016 9.88757 104.016 10.077C104.016 10.2665 104.087 12.1055 104.087 12.1055C104.087 13.0397 105.03 13.4513 105.944 13.4513H106.631C107.541 13.4513 108.485 13.0397 108.485 12.1055V8.16615Z" fill="white"/>
<path d="M125.816 16.12C125.816 16.2179 125.735 16.3192 125.631 16.3192H119.312C119.211 16.3192 119.106 16.2441 119.106 16.12V4.94217C119.106 4.84091 119.184 4.76251 119.288 4.76251H125.627C125.728 4.76251 125.813 4.84091 125.813 4.94217V16.12H125.816Z" fill="white"/>
<path d="M125.816 3.25015C125.816 3.34814 125.735 3.42653 125.631 3.42653H119.292C119.187 3.42653 119.11 3.34814 119.11 3.25015V0.186217C119.11 0.0882236 119.187 0.00656235 119.292 0.00656235H125.631C125.732 0.00656235 125.816 0.0882236 125.816 0.186217V3.25015Z" fill="white"/>
</svg>
